#!OML:ASF F:\VICON\USERDATA\INSTALL\rory3\rory3.ASF
:FULLY-SPECIFIED
:DEGREES
10
root 0.8792995361979213 17.798006407415112 -11.033287072459574 -1.6266154220062288 -6.263576384540917 -3.9966049552090364
lfemur -24.828990435857058 -5.441738827571587 -16.359305109241763
ltibia 23.10410503587842
lfoot 0.6715142848613738 -2.2987005992894267
ltoes -0.8693690594770871
rfemur 9.249546556177044 5.223774659974289 29.827993757534305
rtibia 38.370500065375225
rfoot -8.245860070946396 3.549092023416474
rtoes -4.758838772907815
lowerback 11.089590789333522 2.2813371234843567 4.033453519596359
upperback 0.15524496845657698 3.6119378325002875 1.0493340568747185
thorax -5.876972636702349 1.672577574820496 -1.7375802043169355
lowerneck -16.204401079828706 -3.6133899983227318 -1.1687722032165415
upperneck 21.537597294071446 -4.6928434367846545 -0.17056553013535958
head 9.500278671689685 -2.2991091366386125 -0.4675589760636085
lclavicle -4.533851337713573e-16 -7.764982074520073e-16
lhumerus -38.904687861587874 12.79348720430362 77.28041257124711
lradius 18.847611908729583
lwrist -1.4274410312506705
lhand -25.081714715517165 24.43619215402379
lfingers 7.12502
lthumb 1.4326153279347316 54.41109232141663
rclavicle -4.533851337713573e-16 -7.764982074520073e-16
rhumerus -20.8813113501535 -11.868407955550644 -82.36809174841409
rradius 32.037988541404815
rwrist -0.43048788477825717
rhand -19.28028952795273 23.578694761789425
rfingers 7.12502
rthumb 7.034580324123234 -6.2844350536424285
11
root 0.9307423399229657 17.84760283836599 -10.153987053031154 -2.421010387063536 -5.628478445038388 -3.142287013667488
lfemur -23.15659089156362 -4.247862301523602 -18.678101818423364
ltibia 26.86570267519518
lfoot -0.8894676693582575 -3.067059510327644
ltoes -3.126179799906109
rfemur 5.914887501668531 3.2069311056789918 27.32179754863369
rtibia 46.81529570711861
rfoot 7.191784324219 6.355886909498002
rtoes 2.7392408360227
lowerback 10.948192000218596 2.2754672597434915 3.7023043855822317
upperback 0.11406320227316356 3.5410281089439986 0.7839174220794838
thorax -5.847173056853338 1.6443577952250297 -1.8137599914309155
lowerneck -15.59221195764243 -3.7181468171982486 -1.3623591937376007
upperneck 22.009691819350294 -4.834760970354267 -0.045587779219475655
head 9.561766548333138 -2.3673760304484945 -0.40449142834639085
lclavicle -4.533851921215141e-16 -7.764981782575121e-16
lhumerus -38.8672885081186 13.252186773425409 76.65761584502341
lradius 18.101313614865163
lwrist -2.1524486725571235
lhand -25.50261281926007 20.802199325946148
lfingers 7.12502
lthumb 1.0261672677848939 50.77949930915825
rclavicle -4.533851921215141e-16 -7.764981782575121e-16
rhumerus -23.12700794607258 -13.957705187599299 -81.70639319793302
rradius 31.750189100164334
rwrist -0.06446129965464564
rhand -19.760785967986422 22.897097423724226
rfingers 7.12502
rthumb 6.570763942858491 -6.981002346250606
12
root 0.98678402663986 17.915297962446704 -9.3442877555014 -2.9965967135373903 -6.33552623551032 -2.2343993404594777
lfemur -20.726893138468363 -3.759633775589911 -20.649998925335137
ltibia 29.38700112773098
lfoot -3.7334333533718285 -1.2767420485689807
ltoes 0.6201737708389521
rfemur 0.2621878584292734 3.386860531730016 25.115600784469468
rtibia 56.39869047453132
rfoot 21.068969892108726 6.060738196406231
rtoes 7.192534628931222
lowerback 11.224289556454503 2.452436085318477 3.1253458029082934
upperback 0.08995862516010622 3.7063575282165653 0.6447592183584882
thorax -6.045200198334592 1.7351569636523667 -1.6775704415775132
lowerneck -15.715909746166712 -3.4892737821192776 -1.1665822030198247
upperneck 22.563585380873086 -4.4683973914382396 -0.46578568215734606
head 9.762069630006557 -2.2259124535340113 -0.5452081728328405
lclavicle -4.533852045601171e-16 -7.764982032925823e-16
lhumerus -38.91378818640011 12.453887537591044 77.2198130067192
lradius 19.95220973898595
lwrist -0.45351060564984014
lhand -24.686616627873192 19.7093014757849
lfingers 7.12502
lthumb 1.8142034796352924 49.681301465273954
rclavicle -4.533852045601171e-16 -7.764982032925823e-16
rhumerus -24.382205827640718 -15.175903773622021 -81.29509410665007
rradius 30.49659165510011
rwrist 0.5599711070126951
rhand -18.74999357499684 23.386295509734495
rfingers 7.12502
rthumb 7.546486405507242 -6.459034444003857
13
root 1.0058845456207952 17.95249528152183 -8.582117810006475 -3.588412931518228 -6.784474778951765 -0.7819460494631685
lfemur -17.490495016357578 -4.746920887649393 -22.77099576495014
ltibia 29.025201407161767
lfoot -4.858622068534249 0.869733110750019
ltoes 8.048613510448993
rfemur -5.908243809238661 3.0000817603008745 22.79160428530503
rtibia 65.73968548579711
rfoot 19.566172601547464 2.5877437136003714
rtoes 12.95628609391348
lowerback 11.3667883228653 2.525745638096629 1.7771689351024513
upperback 0.3998106500105241 3.6085378865623454 0.3719477099687035
thorax -5.86634280145143 1.7273171221612893 -1.1921325000192269
lowerneck -16.23560052632967 -3.207712349291848 -1.1551024043792593
upperneck 22.78648277274915 -4.068504454930876 -0.4801975109093075
head 9.937693570061953 -2.0384509989709843 -0.5133199157668376
lclavicle -4.533851760592332e-16 -7.764982059608899e-16
lhumerus -37.54919024975052 10.228491621282782 78.56970585288167
lradius 21.21820727410775
lwrist 3.0678661792517916
lhand -25.322513631534186 18.44590395052502
lfingers 7.12502
lthumb 1.2001064237893861 48.42230391491834
rclavicle -4.533851760592332e-16 -7.764982059608899e-16
rhumerus -24.399705881610995 -15.857402759979049 -81.30619403656287
rradius 28.59879579187575
rwrist 1.704984797707965
rhand -18.452695811315532 24.171392428094652
rfingers 7.12502
rthumb 7.833374179396196 -5.663537554295189
14
root 1.0036245904803827 17.99309235644496 -7.8532487736669605 -4.087559683560658 -5.927427582259996 -0.10567281072905033
lfemur -14.433696728760623 -5.131129555887745 -24.309293695427158
ltibia 29.63300101928828
lfoot -7.697418719259478 2.2156929156365974
ltoes -1.6875019163642526
rfemur -11.25500017500172 0.7823667181723288 21.594506128729698
rtibia 71.85648156677952
rfoot 9.145472754167104 -1.4730686737371324
rtoes 7.200384395808632
lowerback 11.718285216720801 2.0697684975053763 1.0618106207270819
upperback 0.3872020147672986 2.914950775618535 0.3722436193370273
thorax -6.132368902226719 1.4031700804129237 -0.6956366820340616
lowerneck -16.072303412992905 -2.9359006492892705 -1.278000480366917
upperneck 22.93608113346779 -3.6559017106096228 -0.4909824648322405
head 9.9617527557868 -1.8604491142047872 -0.4410265624326063
lclavicle -4.533851813138987e-16 -7.764981957585413e-16
lhumerus -36.27499214175416 9.96071201267937 78.6500054459139
lradius 21.86980569010071
lwrist 3.344675422227321
lhand -25.622012278694818 20.549199830362888
lfingers 7.12502
lthumb 0.9107697632796974 50.52699980352553
rclavicle -4.533851813138987e-16 -7.764981957585413e-16
rhumerus -24.928905092204413 -17.913000100314047 -80.67809530681487
rradius 26.29910062853867
rwrist 4.88605824869841
rhand -17.869500219640315 24.902189501397537
rfingers 7.12502
rthumb 8.39626978036667 -4.910880478855699
